<svg class="w-[16px] h-[16px] md:w-[20px] md:h-[20px] me-2 -ms-1" focusable="false" data-prefix="fab" dat-icon="play" role="img" viewBox="0 0 16 16" xmlns="http://www.w3.org/2000/svg"><path d="M1.03094 0.861691L8.31428 8.00419L1.08511 15.2125C0.967136 15.0583 0.875354 14.8857 0.813444 14.7017C0.780935 14.4932 0.780935 14.281 0.813444 14.0725V1.80586C0.791777 1.47669 0.86761 1.14752 1.03011 0.861691M11.4518 4.88919L9.07428 7.24419L1.87761 0.166691C2.11094 0.0858581 2.36094 0.0633582 2.60511 0.101692C2.98844 0.206692 3.35428 0.368358 3.69011 0.579191L10.2034 4.18336C10.6268 4.41086 11.0393 4.65003 11.4518 4.88919ZM9.07511 8.77503L11.4409 11.0984L9.72594 12.0534L4.49344 14.9617C4.06011 15.2009 3.62511 15.4292 3.20178 15.69C3.02068 15.8029 2.81755 15.8758 2.606 15.9038C2.39445 15.9318 2.17936 15.9144 1.97511 15.8525L9.07511 8.77503ZM15.2084 8.00419C15.215 8.29567 15.1415 8.58338 14.9961 8.83607C14.8507 9.08875 14.6388 9.29677 14.3834 9.43752L12.4284 10.5225L9.85594 8.00419L12.4393 5.44252C13.1018 5.81169 13.7534 6.18086 14.4043 6.52836C14.664 6.67328 14.8773 6.88884 15.0195 7.15005C15.1616 7.41126 15.2277 7.70742 15.2084 8.00419Z" fill="currentColor"></path></svg>